<?xml version="1.0" encoding="utf-8"?>
<!-- Generator: Adobe Illustrator 21.0.0, SVG Export Plug-In . SVG Version: 6.00 Build 0)  -->
<svg version="1.1" id="Capa_1" xmlns="http://www.w3.org/2000/svg" xmlns:xlink="http://www.w3.org/1999/xlink" x="0px" y="0px"
	 viewBox="0 0 512 512" style="enable-background:new 0 0 512 512;" xml:space="preserve">
<style type="text/css">
	.st0{fill:#FFC107;}
	.st1{fill:#FFD08D;}
</style>
<path class="st0" d="M440.4,301.8L266.7,475.6V10.7C266.7,4.8,261.9,0,256,0s-10.7,4.8-10.7,10.7v464.9L71.5,301.8
	c-4.2-4.1-11-4-15.1,0.3c-4,4.1-4,10.7,0,14.8l192,192c4.2,4.2,10.9,4.2,15.1,0c0,0,0,0,0,0l192-192c4.1-4.2,4-11-0.3-15.1
	C451.2,297.8,444.6,297.8,440.4,301.8L440.4,301.8z"/>
<path class="st1" d="M256,512c-2.8,0-5.5-1.1-7.6-3.1l-192-192c-4.1-4.2-4-11,0.3-15.1c4.1-4,10.7-4,14.8,0L256,486.3l184.4-184.4
	c4.2-4.1,11-4,15.1,0.3c4,4.1,4,10.7,0,14.8l-192,192C261.5,510.9,258.8,512,256,512z"/>
<path class="st1" d="M256,512c-5.9,0-10.7-4.8-10.7-10.7V10.7C245.3,4.8,250.1,0,256,0c5.9,0,10.7,4.8,10.7,10.7v490.7
	C266.7,507.2,261.9,512,256,512z"/>
</svg>
