<?xml version="1.0"?>
<svg xmlns="http://www.w3.org/2000/svg" xmlns:xlink="http://www.w3.org/1999/xlink" xmlns:svgjs="http://svgjs.com/svgjs" version="1.1" width="512" height="512" x="0" y="0" viewBox="0 0 75 75" style="enable-background:new 0 0 512 512" xml:space="preserve" class=""><g transform="matrix(1.3900000000000003,0,0,1.3900000000000003,-14.625,-14.625)"><path xmlns="http://www.w3.org/2000/svg" d="m52.908 52.553v-35.969a3.083 3.083 0 0 0 -3.073-3.084h-24.669a3.083 3.083 0 0 0 -3.074 3.084v35.969zm-7.02-35.453a.723.723 0 0 1 .95-.387.759.759 0 0 1 .233.155.6.6 0 0 1 .155.232.723.723 0 0 1 -.155.8.615.615 0 0 1 -.233.155.69.69 0 0 1 -.281.058.725.725 0 0 1 -.669-1.009zm-10.088-.446h3.4a.728.728 0 0 1 0 1.455h-3.4a.728.728 0 0 1 0-1.455z" fill="#eb3872" data-original="#000000" style="" class=""/><path xmlns="http://www.w3.org/2000/svg" d="m22.092 54.007v4.409a3.077 3.077 0 0 0 3.074 3.084h24.669a3.076 3.076 0 0 0 3.073-3.084v-4.409zm17.5 4.474h-4.183a.728.728 0 0 1 0-1.455h4.182a.728.728 0 0 1 0 1.455z" fill="#eb3872" data-original="#000000" style="" class=""/></g></svg>
