<?xml version="1.0"?>
<svg xmlns="http://www.w3.org/2000/svg" xmlns:xlink="http://www.w3.org/1999/xlink" xmlns:svgjs="http://svgjs.com/svgjs" version="1.1" width="512" height="512" x="0" y="0" viewBox="0 0 511.956 511.956" style="enable-background:new 0 0 512 512" xml:space="preserve" class=""><g><g xmlns="http://www.w3.org/2000/svg"><path d="m500.736 9.778c-12.954-13.022-34.981-13.053-47.965 0l-47.545 47.798c-14.356-14.388-37.935-15.636-52.615-.879l-43.33 43.56c-23.271-16.341-51.74-35.2-81.708-29.747-31.763 5.776-31.231 38.109-41.096 62.023-9.954 24.125-39.661 20.803-56.48 16.676-25.938-6.36-53.76-19.403-79.922-6.424-29.712 14.74-32.506 49.648-22.094 77.707 3.309 8.915 17.435 3.867 14.063-5.219-7.508-20.231-7.221-48.178 14.697-59.05 22.089-10.961 47.923 2.217 69.682 7.555 36.58 8.971 63.524-.329 73.92-25.523 7.201-17.448 6.455-48.721 29.914-52.987 24.554-4.466 49.397 12.62 68.291 25.779l-189.558 190.568c-17.114-17.503-31.068-32.997-43.564-48.361-6.118-7.524-17.757 1.941-11.637 9.464 12.824 15.77 27.114 31.635 44.621 49.533l-40.57 40.786c-14.697 14.775-13.339 38.448.943 52.827l-47.613 47.865c-30.466 30.629 16.7 79.516 47.965 48.084l47.545-47.798c14.356 14.388 37.935 15.636 52.615.879l48.605-48.864c35.634 23.783 65.849 35.832 89.871 35.832.316 0 .633-.002.947-.006 13.777-.184 24.732-4.395 32.563-12.515 15.213-15.779 14.596-42.454 14.227-58.392-.425-18.371 4.05-30.823 13.3-37.011 12.591-8.425 33.125-.807 45.521 4.345 34.65 13.48 59.684 23.219 76.13 7.457 25.959-24.879-9.459-79.791-20.933-96.028-13.239-18.735-27.575-36.788-42.653-53.764l37.194-37.392c14.697-14.776 13.339-38.448-.943-52.827l47.613-47.865c13.186-13.258 13.186-34.829-.001-48.086zm-452.236 481.457c-17.314 17.404-43.881-9.65-26.695-26.928l47.556-47.809 26.74 26.882zm394.932-343.258-61.476 61.803c-6.838 6.875 3.794 17.452 10.635 10.578l13.685-13.758c14.484 16.36 28.261 33.74 41 51.767 4.906 6.943 17.014 25.061 23.474 43.306 3.931 11.102 7.006 25.88-.67 33.236-9.542 9.145-30.838.86-60.313-10.606-17.623-7.128-41.965-14.431-59.299-2.833-13.793 9.227-20.507 25.991-19.956 49.826.407 17.591.002 37.23-10.029 47.634-5.018 5.204-12.202 7.797-21.963 7.927-20.59.289-47.42-10.379-79.829-31.674l145.919-146.696c6.838-6.875-3.797-17.455-10.635-10.578l-205.315 206.408c-8.312 8.356-22.16 8.356-30.472 0l-49.714-49.979c-8.426-8.47-8.426-22.252 0-30.723l294.771-296.34c8.312-8.356 22.16-8.356 30.472 0l49.714 49.979c8.426 8.47 8.426 22.252.001 30.723zm46.67-100.692-47.556 47.809-26.74-26.883 47.601-47.854c17.313-17.403 43.88 9.65 26.695 26.928z" fill="#ffd08d" data-original="#000000" style=""/><path d="m394.312 143.584-118.797 119.429c-6.836 6.872 3.792 17.457 10.635 10.578l118.797-119.429c6.837-6.875-3.797-17.454-10.635-10.578z" fill="#ffd08d" data-original="#000000" style=""/></g></g></svg>
